<?xml version="1.0" standalone="no"?>
<!DOCTYPE svg PUBLIC "-//W3C//DTD SVG 20010904//EN"
 "http://www.w3.org/TR/2001/REC-SVG-20010904/DTD/svg10.dtd">
<svg version="1.0" xmlns="http://www.w3.org/2000/svg"
 width="1606.000000pt" height="1606.000000pt" viewBox="0 0 1606.000000 1606.000000"
 preserveAspectRatio="xMidYMid meet">

<g transform="translate(0.000000,1606.000000) scale(0.100000,-0.100000)"
fill="#000000" stroke="none">
<path d="M6920 8025 l0 -1115 1113 2 1112 3 3 1113 2 1112 -1115 0 -1115 0 0
-1115z m2080 5 l0 -970 -970 0 -970 0 0 963 c0 530 3 967 7 970 3 4 440 7 970
7 l963 0 0 -970z"/>
<path d="M7370 8620 l0 -70 665 0 665 0 0 70 0 70 -665 0 -665 0 0 -70z"/>
<path d="M7370 8325 l0 -75 665 0 665 0 0 75 0 75 -665 0 -665 0 0 -75z"/>
<path d="M7370 8030 l0 -70 665 0 665 0 0 70 0 70 -665 0 -665 0 0 -70z"/>
<path d="M7370 7730 l0 -70 293 2 292 3 3 68 3 67 -296 0 -295 0 0 -70z"/>
<path d="M7370 7430 l0 -70 293 2 292 3 3 68 3 67 -296 0 -295 0 0 -70z"/>
</g>
</svg>
