<svg version="1.1" id="Layer_1" xmlns="http://www.w3.org/2000/svg" xmlns:xlink="http://www.w3.org/1999/xlink" x="0px" y="0px"
	 width="100%" viewBox="0 0 1024 1024" enable-background="new 0 0 1024 1024" xml:space="preserve">
<path fill="#040304" opacity="1.000000" stroke="none" 
	d="
M945.000000,1025.000000 
	C630.365356,1025.000000 315.730743,1025.000000 1.048052,1025.000000 
	C1.048052,683.733459 1.048052,342.466919 1.048052,1.100176 
	C342.231781,1.100176 683.463623,1.100176 1025.000000,1.100176 
	C1025.000000,336.697540 1025.000000,672.395142 1024.533081,1008.546631 
	C1019.044067,1009.056091 1014.021973,1009.111816 1008.537720,1009.096802 
	C1003.050293,1009.073181 998.025085,1009.120361 992.537231,1009.099731 
	C987.047363,1009.076233 982.019958,1009.120483 976.529907,1009.091064 
	C971.044861,1009.067322 966.022522,1009.117249 960.537964,1009.091919 
	C955.069214,1009.016663 950.062622,1009.016663 945.000000,1009.016663 
	C945.000000,1014.829102 945.000000,1019.914551 945.000000,1025.000000 
M351.660126,685.227600 
	C351.660126,685.227600 351.753174,685.197021 352.071472,686.010681 
	C351.990814,686.865051 351.910187,687.719482 351.256073,689.008118 
	C349.962677,693.075989 347.785095,697.086792 347.518341,701.220947 
	C345.683685,729.654175 369.729004,745.944580 393.882355,737.051697 
	C417.363647,728.406189 424.377838,696.989807 404.252136,679.207581 
	C399.705505,675.190430 394.875885,671.083252 387.275452,671.551575 
	C382.343048,671.854980 377.409180,672.388306 372.478912,672.356750 
	C370.284882,672.342712 367.444977,671.856323 366.010498,670.449890 
	C353.559967,658.242859 341.355347,645.784912 329.091766,633.387512 
	C319.393585,623.583435 309.767303,613.707703 300.014099,603.958801 
	C289.844757,593.793945 279.524261,583.780457 269.337982,573.632385 
	C257.356934,561.696106 245.288727,549.839783 233.600372,537.621521 
	C229.732498,533.578308 224.921402,530.619324 224.940689,523.039429 
	C225.186035,426.553955 224.907867,330.067139 224.775726,233.580643 
	C224.773956,232.285263 224.938431,230.989655 225.034348,229.559189 
	C248.853088,228.166000 268.587341,218.824371 285.125183,201.819275 
	C301.808807,184.664230 309.785034,164.410675 309.767853,140.695786 
	C309.766876,139.360580 310.489655,137.425720 311.513153,136.778900 
	C326.459564,127.333351 321.810669,105.795738 307.456573,100.621193 
	C305.962738,100.082672 304.386353,98.557854 303.728149,97.094810 
	C288.021149,62.182610 260.524139,43.657368 223.024002,39.772270 
	C196.370834,37.010948 173.038147,46.106186 153.182037,63.348824 
	C134.923645,79.204041 124.594772,99.654480 122.263237,123.965958 
	C119.794159,149.711914 124.143578,173.556000 140.744827,194.311432 
	C156.367569,213.843506 175.905411,226.602676 201.171356,228.980850 
	C206.287796,229.462433 206.857391,231.172363 206.852478,235.538025 
	C206.740921,334.696503 206.791977,433.855164 206.679214,533.013611 
	C206.674225,537.406494 207.950409,540.531067 211.155746,543.481140 
	C217.624954,549.435242 223.845520,555.667419 230.025894,561.925842 
	C245.669952,577.767517 261.211731,593.710083 276.838318,609.568970 
	C293.021851,625.993103 309.249115,642.374146 325.472687,658.758789 
	C334.218109,667.591003 342.995850,676.391235 351.660126,685.227600 
M475.880127,846.282410 
	C489.244965,832.309082 502.609802,818.335754 516.780396,804.450500 
	C517.022278,804.570862 517.264099,804.691223 517.300171,805.589783 
	C517.359253,806.386414 517.418335,807.182983 517.220398,808.891724 
	C517.075867,810.879333 516.807007,812.866821 516.804993,814.854553 
	C516.755859,862.482971 516.735352,910.111328 516.709717,957.739746 
	C516.708862,959.328552 516.709595,960.917358 516.709595,962.477783 
	C524.364075,962.477783 531.294617,962.477783 538.501953,962.477783 
	C538.591858,960.739807 538.732544,959.283447 538.733032,957.827087 
	C538.747559,911.198364 538.751404,864.569641 538.740295,817.940918 
	C538.739868,816.285095 538.571716,814.629211 538.691284,812.104736 
	C538.691284,809.220337 538.691284,806.335999 538.691284,802.046082 
	C540.497070,804.533875 541.207642,805.821594 542.199524,806.833618 
	C560.208557,825.207397 578.288086,843.512451 596.215759,861.965149 
	C597.611389,863.401733 598.729187,865.819092 598.737793,867.786072 
	C598.868408,897.616333 598.788391,927.447449 598.773010,957.278381 
	C598.772217,958.886719 598.906250,960.495239 598.974487,962.035522 
	C605.971008,962.035522 612.515259,962.035522 619.237488,962.035522 
	C619.237488,926.946838 619.268799,892.297363 619.133301,857.648621 
	C619.127380,856.121399 617.901245,854.298157 616.731812,853.121338 
	C598.348999,834.622253 579.939026,816.148987 561.367859,797.839539 
	C558.838013,795.345459 558.204468,792.832947 558.206848,789.508484 
	C558.267090,706.681641 558.243530,623.854797 558.234863,541.027893 
	C558.234741,539.405334 558.234924,537.782715 558.234924,536.238953 
	C655.880005,522.137268 729.103210,431.401886 721.971375,329.943512 
	C715.120972,232.487366 638.947144,153.092209 538.446167,147.580994 
	C436.789185,142.006393 351.459595,214.702545 335.757568,312.528168 
	C320.152679,409.748627 381.194092,516.769653 497.451538,536.347961 
	C497.548859,537.439209 497.740173,538.580688 497.739655,539.721985 
	C497.700531,623.715027 497.665375,707.708069 497.475464,791.700806 
	C497.471039,793.665894 496.098145,795.972656 494.702484,797.526245 
	C490.281738,802.447937 485.546875,807.087463 480.324463,812.133789 
	C477.078583,815.432861 473.847351,818.746460 470.584198,822.028381 
	C459.821350,832.852905 448.959900,843.582214 438.375702,854.578430 
	C436.875458,856.137024 436.034943,858.968567 436.018951,861.218994 
	C435.861603,883.348938 435.945892,905.480530 435.956573,927.611694 
	C435.962097,939.034668 435.957550,950.457642 435.957550,961.633423 
	C444.161652,961.633423 451.947266,961.633423 459.346375,961.633423 
	C458.825928,958.401001 458.045258,955.765747 458.031616,953.126526 
	C457.888092,925.319458 457.743744,897.510681 457.987183,869.705750 
	C458.013977,866.648438 459.875183,863.133118 461.903168,860.666992 
	C465.995361,855.690552 470.787506,851.289734 475.880127,846.282410 
M763.926208,597.428162 
	C740.354492,621.106384 716.698425,644.701782 693.294861,668.545105 
	C689.429749,672.482849 685.671875,673.018555 680.562866,672.136169 
	C670.046814,670.319946 659.930908,671.409607 651.811157,679.396240 
	C639.070435,691.928223 637.281067,709.685181 646.916016,725.272766 
	C658.587402,744.154968 686.620667,742.010498 698.107361,730.449463 
	C709.925171,718.555054 710.219421,704.437683 705.771790,689.658691 
	C704.808960,686.459045 705.412415,684.873474 707.451965,682.809509 
	C723.327759,666.743347 739.058716,650.533630 754.973511,634.506287 
	C779.209900,610.098511 803.578247,585.821777 827.845215,561.444275 
	C834.408325,554.851196 840.884338,548.166626 847.223206,541.359131 
	C848.615356,539.863953 850.114746,537.666748 850.115112,535.792664 
	C850.131409,440.316010 849.989868,344.839325 849.867432,249.362656 
	C849.859131,242.903931 849.866333,236.445175 849.866333,229.801102 
	C867.519104,228.571747 883.514465,223.646439 897.437073,213.013931 
	C912.408081,201.580948 924.171997,187.781876 929.851562,169.395035 
	C931.353333,164.533371 931.339111,158.701950 937.292114,156.180939 
	C938.134338,155.824280 938.788574,154.299408 938.968140,153.221634 
	C939.998596,147.037827 941.470947,140.827972 941.493103,134.622284 
	C941.502686,131.941513 938.426270,129.230438 936.694885,126.570030 
	C935.664246,124.986359 934.016663,123.622124 933.516235,121.905678 
	C930.735291,112.367378 928.992432,102.452606 925.423706,93.236115 
	C920.747131,81.158585 912.149048,71.598564 902.652405,62.828892 
	C889.253662,50.455723 873.207397,43.245525 855.605896,40.499512 
	C838.745972,37.869202 822.066528,39.656002 805.729431,46.144535 
	C791.074402,51.965012 778.748474,60.700165 768.734497,72.285667 
	C755.495117,87.602768 748.140991,105.772087 746.531433,126.209709 
	C745.050049,145.020370 747.313782,163.257950 755.814941,180.078369 
	C763.807556,195.892715 776.033081,208.132034 791.345703,217.393051 
	C802.386719,224.070663 813.955139,228.708954 826.878296,229.150513 
	C830.935181,229.289124 831.859192,230.540436 831.839478,234.394943 
	C831.681946,265.220764 831.725891,296.047699 831.728333,326.874298 
	C831.733459,392.026794 831.711548,457.179382 831.856812,522.331604 
	C831.865967,526.428833 831.845032,530.004150 828.450989,532.900208 
	C826.324585,534.714600 824.577942,536.967102 822.591797,538.953918 
	C803.237244,558.314758 783.868103,577.661011 763.926208,597.428162 
z"/>
<path fill="#51DA4C" opacity="1.000000" stroke="none" 
	d="
M976.992615,1009.164795 
	C982.019958,1009.120483 987.047363,1009.076233 992.537476,1009.555664 
	C993.000122,1015.052856 993.000061,1020.026428 993.000000,1025.000000 
	C987.977905,1025.000000 982.955811,1025.000000 977.466858,1024.533691 
	C976.997498,1019.099792 976.995056,1014.132263 976.992615,1009.164795 
z"/>
<path fill="#42FFFF" opacity="1.000000" stroke="none" 
	d="
M976.529907,1009.091064 
	C976.995056,1014.132263 976.997498,1019.099792 977.000000,1024.533691 
	C971.977905,1025.000000 966.955811,1025.000000 961.466858,1024.533691 
	C961.000061,1019.100647 961.000122,1014.133850 961.000183,1009.167114 
	C966.022522,1009.117249 971.044861,1009.067322 976.529907,1009.091064 
z"/>
<path fill="#FFFF66" opacity="1.000000" stroke="none" 
	d="
M960.537964,1009.091919 
	C961.000122,1014.133850 961.000061,1019.100647 961.000000,1024.533691 
	C955.977905,1025.000000 950.955811,1025.000000 945.466858,1025.000000 
	C945.000000,1019.914551 945.000000,1014.829102 945.000000,1009.016663 
	C950.062622,1009.016663 955.069214,1009.016663 960.537964,1009.091919 
z"/>
<path fill="#3C46FF" opacity="1.000000" stroke="none" 
	d="
M1008.999878,1009.167480 
	C1014.021973,1009.111816 1019.044067,1009.056091 1024.533081,1009.000244 
	C1025.000000,1014.258423 1025.000000,1019.516846 1025.000000,1025.000000 
	C1019.982300,1025.000000 1014.962341,1025.000000 1009.471191,1024.533569 
	C1009.000000,1019.100586 1008.999939,1014.134033 1008.999878,1009.167480 
z"/>
<path fill="#FF6E3C" opacity="1.000000" stroke="none" 
	d="
M1008.537720,1009.096741 
	C1008.999939,1014.134033 1009.000000,1019.100586 1009.000000,1024.533569 
	C1003.977905,1025.000000 998.955811,1025.000000 993.466858,1025.000000 
	C993.000061,1020.026428 993.000122,1015.052856 993.000000,1009.623413 
	C998.025085,1009.120361 1003.050293,1009.073181 1008.537720,1009.096741 
z"/>
<path fill="#02EEFD" opacity="1.000000" stroke="none" 
	d="
M517.477417,807.979614 
	C517.418335,807.182983 517.359253,806.386414 517.499390,805.011047 
	C517.123901,804.408997 516.549316,804.385742 515.974670,804.362488 
	C502.609802,818.335754 489.244965,832.309082 475.378235,846.142090 
	C473.082672,844.903931 471.289001,843.806030 469.440674,842.674622 
	C469.791016,841.141968 470.855957,839.114075 470.306000,838.474243 
	C465.768494,833.195251 470.726227,830.685913 473.141296,827.278625 
	C476.499054,822.541321 481.755371,818.700073 480.933472,811.836121 
	C485.546875,807.087463 490.281738,802.447937 494.702484,797.526245 
	C496.098145,795.972656 497.471039,793.665894 497.475464,791.700806 
	C497.665375,707.708069 497.700531,623.715027 497.739655,539.721985 
	C497.740173,538.580688 497.548859,537.439209 497.451538,536.347961 
	C381.194092,516.769653 320.152679,409.748627 335.757568,312.528168 
	C351.459595,214.702545 436.789185,142.006393 538.446167,147.580994 
	C638.947144,153.092209 715.120972,232.487366 721.971375,329.943512 
	C729.103210,431.401886 655.880005,522.137268 558.234924,536.238953 
	C558.234924,537.782715 558.234741,539.405334 558.234863,541.027893 
	C558.243530,623.854797 558.267090,706.681641 558.206848,789.508484 
	C558.204468,792.832947 558.838013,795.345459 561.367859,797.839539 
	C579.939026,816.148987 598.348999,834.622253 616.731812,853.121338 
	C617.901245,854.298157 619.127380,856.121399 619.133301,857.648621 
	C619.268799,892.297363 619.237488,926.946838 619.237488,962.035522 
	C612.515259,962.035522 605.971008,962.035522 598.974487,962.035522 
	C598.906250,960.495239 598.772217,958.886719 598.773010,957.278381 
	C598.788391,927.447449 598.868408,897.616333 598.737793,867.786072 
	C598.729187,865.819092 597.611389,863.401733 596.215759,861.965149 
	C578.288086,843.512451 560.208557,825.207397 542.199524,806.833618 
	C541.207642,805.821594 540.497070,804.533875 538.691284,802.046082 
	C538.691284,806.335999 538.691284,809.220337 538.231567,812.509216 
	C531.007019,811.268982 524.242188,809.624329 517.477417,807.979614 
z"/>
<path fill="#01EAF8" opacity="1.000000" stroke="none" 
	d="
M764.214600,597.219788 
	C783.868103,577.661011 803.237244,558.314758 822.591797,538.953918 
	C824.577942,536.967102 826.324585,534.714600 828.450989,532.900208 
	C831.845032,530.004150 831.865967,526.428833 831.856812,522.331604 
	C831.711548,457.179382 831.733459,392.026794 831.728333,326.874298 
	C831.725891,296.047699 831.681946,265.220764 831.839478,234.394943 
	C831.859192,230.540436 830.935181,229.289124 826.878296,229.150513 
	C813.955139,228.708954 802.386719,224.070663 791.345703,217.393051 
	C776.033081,208.132034 763.807556,195.892715 755.814941,180.078369 
	C747.313782,163.257950 745.050049,145.020370 746.531433,126.209709 
	C748.140991,105.772087 755.495117,87.602768 768.734497,72.285667 
	C778.748474,60.700165 791.074402,51.965012 805.729431,46.144535 
	C822.066528,39.656002 838.745972,37.869202 855.605896,40.499512 
	C873.207397,43.245525 889.253662,50.455723 902.652405,62.828892 
	C912.149048,71.598564 920.747131,81.158585 925.423706,93.236115 
	C928.992432,102.452606 930.735291,112.367378 933.516235,121.905678 
	C934.016663,123.622124 935.664246,124.986359 936.694885,126.570030 
	C938.426270,129.230438 941.502686,131.941513 941.493103,134.622284 
	C941.470947,140.827972 939.998596,147.037827 938.968140,153.221634 
	C938.788574,154.299408 938.134338,155.824280 937.292114,156.180939 
	C931.339111,158.701950 931.353333,164.533371 929.851562,169.395035 
	C924.171997,187.781876 912.408081,201.580948 897.437073,213.013931 
	C883.514465,223.646439 867.519104,228.571747 849.866333,229.801102 
	C849.866333,236.445175 849.859131,242.903931 849.867432,249.362656 
	C849.989868,344.839325 850.131409,440.316010 850.115112,535.792664 
	C850.114746,537.666748 848.615356,539.863953 847.223206,541.359131 
	C840.884338,548.166626 834.408325,554.851196 827.845215,561.444275 
	C803.578247,585.821777 779.209900,610.098511 754.973511,634.506287 
	C739.058716,650.533630 723.327759,666.743347 707.451965,682.809509 
	C705.412415,684.873474 704.808960,686.459045 705.771790,689.658691 
	C710.219421,704.437683 709.925171,718.555054 698.107361,730.449463 
	C686.620667,742.010498 658.587402,744.154968 646.916016,725.272766 
	C637.281067,709.685181 639.070435,691.928223 651.811157,679.396240 
	C659.930908,671.409607 670.046814,670.319946 680.562866,672.136169 
	C685.671875,673.018555 689.429749,672.482849 693.294861,668.545105 
	C716.698425,644.701782 740.354492,621.106384 764.214600,597.219788 
M832.558533,181.229767 
	C862.272583,185.835510 883.065369,164.945877 883.262939,142.990753 
	C868.369690,142.990753 853.476746,142.990753 838.538513,142.990753 
	C838.538513,140.059357 838.538513,137.642700 838.538513,134.747452 
	C854.059998,134.747452 869.309143,134.747452 885.773682,134.747452 
	C884.102600,127.974327 883.040466,121.784058 881.042725,115.912064 
	C873.895996,94.905258 847.282349,80.906609 824.265991,91.738190 
	C815.670349,95.783310 807.757141,100.501808 802.943054,108.971771 
	C786.752563,137.457733 798.700623,173.543045 832.558533,181.229767 
M764.273254,154.125092 
	C771.767883,192.893219 806.557312,212.651703 832.047974,215.043869 
	C832.047974,208.610016 832.047974,202.205399 832.047974,195.508484 
	C831.099243,195.383850 830.141907,195.274277 829.189697,195.130630 
	C811.962280,192.531769 798.875732,183.793625 789.186401,169.269043 
	C782.605408,159.404007 780.673584,148.619751 780.115906,137.159363 
	C778.348572,100.839920 803.593811,75.063217 837.744934,72.996353 
	C868.171814,71.154884 894.888489,90.921265 899.625183,123.802322 
	C900.061646,126.832108 901.302490,129.812881 902.606323,132.613190 
	C903.040100,133.544785 904.840210,134.296936 906.017456,134.299515 
	C907.240601,134.302200 909.470764,133.388062 909.530151,132.720840 
	C909.973877,127.735344 913.864136,127.016167 917.948608,125.833961 
	C917.494629,123.123474 917.172363,120.529022 916.616760,117.985527 
	C910.705566,90.924706 895.438171,71.767296 869.574463,60.944103 
	C837.758728,47.630196 800.648865,58.118427 778.942566,85.289734 
	C762.831787,105.456718 760.048340,128.644684 764.273254,154.125092 
M908.178284,143.742584 
	C905.732849,143.742584 903.287476,143.742584 900.842834,143.742584 
	C895.413635,173.254257 880.080017,192.286026 849.298279,195.713135 
	C849.298279,202.215881 849.298279,208.581192 849.298279,215.407593 
	C862.160217,212.910736 873.977905,209.394485 884.570129,202.427231 
	C894.440918,195.934494 902.792236,187.887863 908.437073,177.487305 
	C912.762512,169.517761 918.960388,161.517395 911.929626,151.781784 
	C911.039246,150.548828 911.284180,148.544815 910.771851,146.973450 
	C910.404297,145.846298 909.650940,144.844986 908.178284,143.742584 
M695.206970,702.694214 
	C693.085632,690.537842 685.357849,684.256775 673.377563,685.337463 
	C670.651184,685.583374 668.016724,686.913330 665.353821,687.786499 
	C657.901306,690.230286 654.608582,695.830017 654.344177,703.234009 
	C654.075439,710.758667 656.286682,717.776367 663.099487,721.612183 
	C678.077881,730.045410 695.403320,720.889526 695.206970,702.694214 
z"/>
<path fill="#01EAF8" opacity="1.000000" stroke="none" 
	d="
M351.829529,688.573853 
	C351.910187,687.719482 351.990814,686.865051 351.910706,685.613831 
	C351.749939,685.216980 351.759003,685.205933 351.759003,685.205933 
	C342.995850,676.391235 334.218109,667.591003 325.472687,658.758789 
	C309.249115,642.374146 293.021851,625.993103 276.838318,609.568970 
	C261.211731,593.710083 245.669952,577.767517 230.025894,561.925842 
	C223.845520,555.667419 217.624954,549.435242 211.155746,543.481140 
	C207.950409,540.531067 206.674225,537.406494 206.679214,533.013611 
	C206.791977,433.855164 206.740921,334.696503 206.852478,235.538025 
	C206.857391,231.172363 206.287796,229.462433 201.171356,228.980850 
	C175.905411,226.602676 156.367569,213.843506 140.744827,194.311432 
	C124.143578,173.556000 119.794159,149.711914 122.263237,123.965958 
	C124.594772,99.654480 134.923645,79.204041 153.182037,63.348824 
	C173.038147,46.106186 196.370834,37.010948 223.024002,39.772270 
	C260.524139,43.657368 288.021149,62.182610 303.728149,97.094810 
	C304.386353,98.557854 305.962738,100.082672 307.456573,100.621193 
	C321.810669,105.795738 326.459564,127.333351 311.513153,136.778900 
	C310.489655,137.425720 309.766876,139.360580 309.767853,140.695786 
	C309.785034,164.410675 301.808807,184.664230 285.125183,201.819275 
	C268.587341,218.824371 248.853088,228.166000 225.034348,229.559189 
	C224.938431,230.989655 224.773956,232.285263 224.775726,233.580643 
	C224.907867,330.067139 225.186035,426.553955 224.940689,523.039429 
	C224.921402,530.619324 229.732498,533.578308 233.600372,537.621521 
	C245.288727,549.839783 257.356934,561.696106 269.337982,573.632385 
	C279.524261,583.780457 289.844757,593.793945 300.014099,603.958801 
	C309.767303,613.707703 319.393585,623.583435 329.091766,633.387512 
	C341.355347,645.784912 353.559967,658.242859 366.010498,670.449890 
	C367.444977,671.856323 370.284882,672.342712 372.478912,672.356750 
	C377.409180,672.388306 382.343048,671.854980 387.531311,672.085327 
	C387.594269,672.879883 387.458191,673.254944 387.199554,673.383484 
	C384.908691,674.521912 380.828186,673.950989 381.420044,678.006287 
	C382.052246,682.338318 385.964050,680.634338 388.672607,680.997070 
	C388.834351,681.018738 389.001526,680.998230 389.166107,681.000427 
	C395.682404,681.088928 397.322998,683.254761 395.370270,689.486145 
	C383.118652,682.194458 374.656036,683.182068 363.547363,692.963989 
	C361.152405,692.459167 358.994293,691.275574 357.131958,691.633057 
	C354.089508,692.217102 352.774292,691.017578 351.829529,688.573853 
M258.837158,149.075562 
	C259.431000,146.041473 260.024872,143.007370 260.761139,139.245667 
	C258.233002,139.245667 256.450989,139.244904 254.668945,139.245789 
	C241.182327,139.252472 227.695663,139.278717 214.209091,139.255219 
	C209.892487,139.247696 208.570587,137.685059 210.393127,133.847153 
	C211.109177,132.339279 213.787155,130.941544 215.598694,130.906891 
	C228.747635,130.655441 241.903503,130.773392 255.057129,130.749619 
	C256.627502,130.746780 258.197601,130.594223 259.768738,130.511017 
	C258.141510,108.553177 246.619904,94.908081 225.206970,89.133575 
	C211.766464,85.509026 194.090256,91.152885 187.210754,101.265442 
	C193.983795,107.615639 192.830917,117.083267 190.365814,122.546669 
	C186.548386,131.007248 178.761597,131.297409 170.852234,129.897141 
	C167.200592,151.387985 183.040695,174.733246 204.345474,180.265030 
	C228.156891,186.447647 251.715546,173.893280 258.837158,149.075562 
M155.259262,117.758537 
	C154.999771,108.029167 158.758942,100.374542 166.947495,94.962257 
	C170.530304,92.594162 174.247253,90.373199 177.567627,87.672722 
	C203.278778,66.761673 232.847702,69.554672 255.180420,86.703468 
	C267.971741,96.525650 274.301270,110.216072 275.340515,126.357887 
	C275.421570,127.616829 276.566315,129.607300 277.578094,129.870956 
	C282.561554,131.169510 285.421295,129.163956 286.581055,124.035324 
	C287.349640,120.636581 288.206573,117.245544 288.721069,113.805756 
	C289.090790,111.334106 289.617096,108.593361 288.941040,106.307617 
	C285.728607,95.446091 280.137604,86.015350 271.629059,78.291435 
	C249.386368,58.099922 224.153046,49.819763 194.541000,58.364098 
	C177.700394,63.223324 163.786697,72.747581 153.233124,86.516045 
	C144.080933,98.456238 139.138916,112.217560 138.067017,127.532333 
	C135.757004,160.536926 146.369553,186.903961 175.703125,204.179901 
	C185.304520,209.834625 195.430908,214.099121 207.034119,214.794403 
	C207.034119,208.354630 207.034119,202.242828 207.034119,195.984131 
	C204.469421,195.406113 202.042328,194.851883 199.611938,194.312454 
	C176.727280,189.233185 161.214508,171.400635 156.786438,150.497681 
	C154.616043,140.252136 155.667740,129.324051 155.259262,117.758537 
M287.642761,170.098404 
	C291.782562,159.876740 294.153717,149.374741 293.225098,137.772537 
	C290.229309,137.772537 287.759460,137.772537 285.289642,137.772537 
	C282.855286,137.772537 280.420959,137.772537 278.176727,137.772537 
	C272.866302,169.359451 257.999695,191.379486 224.870743,195.811646 
	C224.870743,202.456345 224.870743,208.633041 224.870743,215.676743 
	C253.081879,209.956345 274.980499,197.095505 287.642761,170.098404 
M159.260132,133.319809 
	C159.260132,134.593323 159.260132,135.866837 159.260132,137.140350 
	C159.865570,137.036560 160.470993,136.932770 161.076431,136.828995 
	C160.612305,135.503189 160.148193,134.177368 159.260132,133.319809 
M376.164581,677.661621 
	C376.962280,677.377502 377.759979,677.093384 378.557648,676.809204 
	C378.270905,676.325867 377.984192,675.842529 377.697479,675.359192 
	C377.034668,675.986450 376.371887,676.613647 376.164581,677.661621 
M159.819977,122.553108 
	C159.671478,121.891006 159.522980,121.228912 159.374481,120.566818 
	C159.078247,120.669678 158.782013,120.772545 158.485764,120.875412 
	C158.819992,121.543396 159.154205,122.211388 159.819977,122.553108 
z"/>
<path fill="#01E5F5" opacity="1.000000" stroke="none" 
	d="
M517.348877,808.435669 
	C524.242188,809.624329 531.007019,811.268982 538.126770,812.943542 
	C538.571716,814.629211 538.739868,816.285095 538.740295,817.940918 
	C538.751404,864.569641 538.747559,911.198364 538.733032,957.827087 
	C538.732544,959.283447 538.591858,960.739807 538.501953,962.477783 
	C531.294617,962.477783 524.364075,962.477783 516.709595,962.477783 
	C516.709595,960.917358 516.708862,959.328552 516.709717,957.739746 
	C516.735352,910.111328 516.755859,862.482971 516.804993,814.854553 
	C516.807007,812.866821 517.075867,810.879333 517.348877,808.435669 
z"/>
<path fill="#01E3F3" opacity="1.000000" stroke="none" 
	d="
M480.628967,811.984985 
	C481.755371,818.700073 476.499054,822.541321 473.141296,827.278625 
	C470.726227,830.685913 465.768494,833.195251 470.306000,838.474243 
	C470.855957,839.114075 469.791016,841.141968 469.440674,842.674622 
	C471.289001,843.806030 473.082672,844.903931 475.083679,846.326660 
	C470.787506,851.289734 465.995361,855.690552 461.903168,860.666992 
	C459.875183,863.133118 458.013977,866.648438 457.987183,869.705750 
	C457.743744,897.510681 457.888092,925.319458 458.031616,953.126526 
	C458.045258,955.765747 458.825928,958.401001 459.346375,961.633423 
	C451.947266,961.633423 444.161652,961.633423 435.957550,961.633423 
	C435.957550,950.457642 435.962097,939.034668 435.956573,927.611694 
	C435.945892,905.480530 435.861603,883.348938 436.018951,861.218994 
	C436.034943,858.968567 436.875458,856.137024 438.375702,854.578430 
	C448.959900,843.582214 459.821350,832.852905 470.584198,822.028381 
	C473.847351,818.746460 477.078583,815.432861 480.628967,811.984985 
z"/>
<path fill="#01EAF6" opacity="1.000000" stroke="none" 
	d="
M395.700958,689.626892 
	C397.322998,683.254761 395.682404,681.088928 389.166107,681.000427 
	C389.001526,680.998230 388.834351,681.018738 388.672607,680.997070 
	C385.964050,680.634338 382.052246,682.338318 381.420044,678.006287 
	C380.828186,673.950989 384.908691,674.521912 387.199554,673.383484 
	C387.458191,673.254944 387.594269,672.879883 387.894257,672.273499 
	C394.875885,671.083252 399.705505,675.190430 404.252136,679.207581 
	C424.377838,696.989807 417.363647,728.406189 393.882355,737.051697 
	C369.729004,745.944580 345.683685,729.654175 347.518341,701.220947 
	C347.785095,697.086792 349.962677,693.075989 351.542786,688.791016 
	C352.774292,691.017578 354.089508,692.217102 357.131958,691.633057 
	C358.994293,691.275574 361.152405,692.459167 363.464478,693.312805 
	C357.298859,704.635132 360.060577,715.665405 370.907654,722.257446 
	C379.970032,727.764893 393.522461,724.346924 399.340057,715.086792 
	C404.287567,707.211487 403.125977,699.084595 395.700958,689.626892 
z"/>
<path fill="#01E5F5" opacity="1.000000" stroke="none" 
	d="
M516.377563,804.406494 
	C516.549316,804.385742 517.123901,804.408997 517.602295,804.621948 
	C517.264099,804.691223 517.022278,804.570862 516.377563,804.406494 
z"/>
<path fill="#01EAF6" opacity="1.000000" stroke="none" 
	d="
M351.709564,685.216797 
	C351.759003,685.205933 351.749939,685.216980 351.751556,685.207031 
	C351.753174,685.197021 351.660126,685.227600 351.709564,685.216797 
z"/>
<path fill="#070606" opacity="1.000000" stroke="none" 
	d="
M832.143066,181.152893 
	C798.700623,173.543045 786.752563,137.457733 802.943054,108.971771 
	C807.757141,100.501808 815.670349,95.783310 824.265991,91.738190 
	C847.282349,80.906609 873.895996,94.905258 881.042725,115.912064 
	C883.040466,121.784058 884.102600,127.974327 885.773682,134.747452 
	C869.309143,134.747452 854.059998,134.747452 838.538513,134.747452 
	C838.538513,137.642700 838.538513,140.059357 838.538513,142.990753 
	C853.476746,142.990753 868.369690,142.990753 883.262939,142.990753 
	C883.065369,164.945877 862.272583,185.835510 832.143066,181.152893 
z"/>
<path fill="#0E0808" opacity="1.000000" stroke="none" 
	d="
M764.228638,153.698700 
	C760.048340,128.644684 762.831787,105.456718 778.942566,85.289734 
	C800.648865,58.118427 837.758728,47.630196 869.574463,60.944103 
	C895.438171,71.767296 910.705566,90.924706 916.616760,117.985527 
	C917.172363,120.529022 917.494629,123.123474 917.948608,125.833961 
	C913.864136,127.016167 909.973877,127.735344 909.530151,132.720840 
	C909.470764,133.388062 907.240601,134.302200 906.017456,134.299515 
	C904.840210,134.296936 903.040100,133.544785 902.606323,132.613190 
	C901.302490,129.812881 900.061646,126.832108 899.625183,123.802322 
	C894.888489,90.921265 868.171814,71.154884 837.744934,72.996353 
	C803.593811,75.063217 778.348572,100.839920 780.115906,137.159363 
	C780.673584,148.619751 782.605408,159.404007 789.186401,169.269043 
	C798.875732,183.793625 811.962280,192.531769 829.189697,195.130630 
	C830.141907,195.274277 831.099243,195.383850 832.047974,195.508484 
	C832.047974,202.205399 832.047974,208.610016 832.047974,215.043869 
	C806.557312,212.651703 771.767883,192.893219 764.228638,153.698700 
z"/>
<path fill="#0D0909" opacity="1.000000" stroke="none" 
	d="
M908.624023,143.765060 
	C909.650940,144.844986 910.404297,145.846298 910.771851,146.973450 
	C911.284180,148.544815 911.039246,150.548828 911.929626,151.781784 
	C918.960388,161.517395 912.762512,169.517761 908.437073,177.487305 
	C902.792236,187.887863 894.440918,195.934494 884.570129,202.427231 
	C873.977905,209.394485 862.160217,212.910736 849.298279,215.407593 
	C849.298279,208.581192 849.298279,202.215881 849.298279,195.713135 
	C880.080017,192.286026 895.413635,173.254257 900.842834,143.742584 
	C903.287476,143.742584 905.732849,143.742584 908.624023,143.765060 
z"/>
<path fill="#080607" opacity="1.000000" stroke="none" 
	d="
M695.219727,703.137451 
	C695.403320,720.889526 678.077881,730.045410 663.099487,721.612183 
	C656.286682,717.776367 654.075439,710.758667 654.344177,703.234009 
	C654.608582,695.830017 657.901306,690.230286 665.353821,687.786499 
	C668.016724,686.913330 670.651184,685.583374 673.377563,685.337463 
	C685.357849,684.256775 693.085632,690.537842 695.219727,703.137451 
z"/>
<path fill="#080607" opacity="1.000000" stroke="none" 
	d="
M258.717407,149.466919 
	C251.715546,173.893280 228.156891,186.447647 204.345474,180.265030 
	C183.040695,174.733246 167.200592,151.387985 170.852234,129.897141 
	C178.761597,131.297409 186.548386,131.007248 190.365814,122.546669 
	C192.830917,117.083267 193.983795,107.615639 187.210754,101.265442 
	C194.090256,91.152885 211.766464,85.509026 225.206970,89.133575 
	C246.619904,94.908081 258.141510,108.553177 259.768738,130.511017 
	C258.197601,130.594223 256.627502,130.746780 255.057129,130.749619 
	C241.903503,130.773392 228.747635,130.655441 215.598694,130.906891 
	C213.787155,130.941544 211.109177,132.339279 210.393127,133.847153 
	C208.570587,137.685059 209.892487,139.247696 214.209091,139.255219 
	C227.695663,139.278717 241.182327,139.252472 254.668945,139.245789 
	C256.450989,139.244904 258.233002,139.245667 260.761139,139.245667 
	C260.024872,143.007370 259.431000,146.041473 258.717407,149.466919 
z"/>
<path fill="#100809" opacity="1.000000" stroke="none" 
	d="
M155.260223,118.231705 
	C155.667740,129.324051 154.616043,140.252136 156.786438,150.497681 
	C161.214508,171.400635 176.727280,189.233185 199.611938,194.312454 
	C202.042328,194.851883 204.469421,195.406113 207.034119,195.984131 
	C207.034119,202.242828 207.034119,208.354630 207.034119,214.794403 
	C195.430908,214.099121 185.304520,209.834625 175.703125,204.179901 
	C146.369553,186.903961 135.757004,160.536926 138.067017,127.532333 
	C139.138916,112.217560 144.080933,98.456238 153.233124,86.516045 
	C163.786697,72.747581 177.700394,63.223324 194.541000,58.364098 
	C224.153046,49.819763 249.386368,58.099922 271.629059,78.291435 
	C280.137604,86.015350 285.728607,95.446091 288.941040,106.307617 
	C289.617096,108.593361 289.090790,111.334106 288.721069,113.805756 
	C288.206573,117.245544 287.349640,120.636581 286.581055,124.035324 
	C285.421295,129.163956 282.561554,131.169510 277.578094,129.870956 
	C276.566315,129.607300 275.421570,127.616829 275.340515,126.357887 
	C274.301270,110.216072 267.971741,96.525650 255.180420,86.703468 
	C232.847702,69.554672 203.278778,66.761673 177.567627,87.672722 
	C174.247253,90.373199 170.530304,92.594162 166.947495,94.962257 
	C158.758942,100.374542 154.999771,108.029167 155.260223,118.231705 
z"/>
<path fill="#0E0809" opacity="1.000000" stroke="none" 
	d="
M287.475037,170.439804 
	C274.980499,197.095505 253.081879,209.956345 224.870743,215.676743 
	C224.870743,208.633041 224.870743,202.456345 224.870743,195.811646 
	C257.999695,191.379486 272.866302,169.359451 278.176727,137.772537 
	C280.420959,137.772537 282.855286,137.772537 285.289642,137.772537 
	C287.759460,137.772537 290.229309,137.772537 293.225098,137.772537 
	C294.153717,149.374741 291.782562,159.876740 287.475037,170.439804 
z"/>
<path fill="#080608" opacity="1.000000" stroke="none" 
	d="
M395.370270,689.486145 
	C403.125977,699.084595 404.287567,707.211487 399.340057,715.086792 
	C393.522461,724.346924 379.970032,727.764893 370.907654,722.257446 
	C360.060577,715.665405 357.298859,704.635132 363.834167,693.326172 
	C374.656036,683.182068 383.118652,682.194458 395.370270,689.486145 
z"/>
<path fill="#01E3F3" opacity="1.000000" stroke="none" 
	d="
M159.472107,133.085693 
	C160.148193,134.177368 160.612305,135.503189 161.076431,136.828995 
	C160.470993,136.932770 159.865570,137.036560 159.260132,137.140350 
	C159.260132,135.866837 159.260132,134.593323 159.472107,133.085693 
z"/>
<path fill="#01EAF6" opacity="1.000000" stroke="none" 
	d="
M375.936829,677.451294 
	C376.371887,676.613647 377.034668,675.986450 377.697479,675.359192 
	C377.984192,675.842529 378.270905,676.325867 378.557648,676.809204 
	C377.759979,677.093384 376.962280,677.377502 375.936829,677.451294 
z"/>
<path fill="#01E3F3" opacity="1.000000" stroke="none" 
	d="
M159.654205,122.716240 
	C159.154205,122.211388 158.819992,121.543396 158.485764,120.875412 
	C158.782013,120.772545 159.078247,120.669678 159.374481,120.566818 
	C159.522980,121.228912 159.671478,121.891006 159.654205,122.716240 
z"/>
</svg>