<?xml version="1.0" standalone="no"?>
<!DOCTYPE svg PUBLIC "-//W3C//DTD SVG 20010904//EN"
 "http://www.w3.org/TR/2001/REC-SVG-20010904/DTD/svg10.dtd">
<svg version="1.0" xmlns="http://www.w3.org/2000/svg"
 width="500.000000pt" height="500.000000pt" viewBox="0 0 500.000000 500.000000"
 preserveAspectRatio="xMidYMid meet">

<g transform="translate(0.000000,500.000000) scale(0.100000,-0.100000)"
fill="#000000" stroke="none">
<path d="M2870 3553 c-334 -35 -989 -171 -1102 -229 -74 -38 -119 -158 -98
-261 18 -83 155 -485 190 -554 98 -193 198 -212 640 -120 80 17 156 31 170 31
14 0 105 -20 203 -44 97 -23 177 -41 177 -39 0 3 -25 37 -55 75 l-54 71 57 27
c75 36 129 92 148 155 19 63 19 233 0 496 -11 158 -18 206 -35 245 -47 106
-133 158 -241 147z m78 -117 c15 -8 37 -32 50 -54 20 -36 24 -67 38 -274 9
-128 14 -271 12 -318 -9 -174 -31 -186 -538 -286 -193 -38 -256 -47 -352 -48
-111 -1 -117 0 -143 24 -15 14 -36 43 -47 64 -34 67 -169 448 -189 534 -11 52
2 110 31 137 57 51 679 184 1103 234 4 1 20 -5 35 -13z"/>
<path d="M2568 3339 c-185 -32 -465 -90 -544 -114 -66 -19 -102 -48 -125 -99
-27 -60 -24 -87 26 -206 85 -201 126 -239 252 -240 68 0 493 78 597 110 132
41 167 100 174 287 2 67 1 138 -2 157 -13 71 -99 136 -176 135 -19 0 -110 -14
-202 -30z m253 -100 c20 -20 21 -29 17 -148 -3 -69 -9 -134 -13 -144 -18 -42
-84 -63 -374 -118 -240 -46 -320 -50 -350 -18 -24 26 -111 221 -111 249 0 51
64 72 415 139 349 67 386 70 416 40z"/>
<path d="M2595 3182 c-11 -4 -28 -12 -39 -18 -18 -11 -18 -12 3 -33 26 -26 26
-36 0 -62 -13 -13 -27 -18 -40 -14 -40 13 -13 -77 33 -107 42 -28 84 -31 131
-10 106 47 100 191 -10 238 -35 15 -47 16 -78 6z"/>
<path d="M2187 3094 c-27 -14 -28 -17 -13 -33 32 -36 9 -89 -34 -78 -46 12
-12 -91 40 -118 91 -47 193 14 193 117 0 93 -105 156 -186 112z"/>
<path d="M2636 2701 c-44 -9 -81 -22 -84 -29 -2 -6 10 -25 26 -42 25 -24 39
-30 75 -30 38 0 49 5 71 31 31 36 36 90 9 88 -10 -1 -54 -9 -97 -18z"/>
<path d="M2237 2276 c-21 -8 -46 -21 -56 -30 -10 -9 -23 -16 -30 -16 -35 0
-74 -37 -135 -130 l-66 -101 0 -116 0 -117 -31 -25 c-24 -20 -32 -36 -36 -71
-5 -54 24 -110 57 -110 28 0 36 26 16 49 -20 22 -21 74 -2 90 24 20 69 9 85
-21 14 -25 14 -29 -8 -58 -25 -35 -22 -60 8 -60 31 0 61 47 61 96 0 34 -7 51
-30 77 -29 34 -30 37 -30 138 1 70 5 110 14 121 12 16 15 16 52 -2 35 -18 39
-25 51 -81 57 -280 296 -418 529 -304 98 48 181 170 206 304 11 56 14 62 49
79 59 29 69 12 69 -120 0 -95 -2 -107 -21 -124 -50 -44 -56 -118 -13 -165 38
-42 78 -9 43 34 -10 14 -19 34 -19 45 0 28 34 54 66 50 41 -4 55 -47 30 -93
-20 -37 -15 -55 15 -55 24 0 59 55 59 93 0 36 -25 83 -50 97 -18 10 -20 21
-20 131 l0 121 -52 77 c-29 42 -58 85 -64 96 -10 19 -20 25 -85 57 -15 7 -42
22 -60 33 -31 18 -54 20 -299 22 -206 2 -273 0 -303 -11z m572 -90 c17 -16 21
-30 21 -85 -1 -94 -23 -209 -55 -280 -64 -143 -207 -204 -350 -150 -90 34
-155 115 -183 229 -19 79 -34 213 -27 248 11 58 34 62 321 59 232 -2 254 -4
273 -21z"/>
</g>
</svg>
