<?xml version="1.0" standalone="no"?>
<!DOCTYPE svg PUBLIC "-//W3C//DTD SVG 20010904//EN"
 "http://www.w3.org/TR/2001/REC-SVG-20010904/DTD/svg10.dtd">
<svg version="1.0" xmlns="http://www.w3.org/2000/svg"
 width="1920.000000pt" height="1920.000000pt" viewBox="0 0 1920.000000 1920.000000"
 preserveAspectRatio="xMidYMid meet">

<g transform="translate(0.000000,1920.000000) scale(0.100000,-0.100000)"
fill="#000000" stroke="none">
<path d="M9054 12456 c-17 -8 -40 -26 -52 -41 -22 -28 -22 -28 -22 -611 l0
-584 -267 0 c-251 0 -270 -1 -301 -20 -18 -11 -40 -37 -48 -57 -23 -53 -11
-97 41 -148 l43 -44 -26 -9 c-15 -6 -329 -116 -699 -245 -369 -130 -680 -241
-690 -248 -18 -10 -510 -858 -541 -932 -18 -41 -7 -94 26 -126 19 -19 95 -52
244 -106 l218 -79 2 -763 3 -763 31 -31 c28 -27 190 -87 1300 -475 698 -244
1276 -444 1284 -444 8 0 586 200 1284 444 1110 388 1272 448 1300 475 l31 31
3 763 2 763 216 79 c119 43 226 87 239 97 29 22 49 80 41 114 -9 36 -524 936
-544 950 -18 13 -43 22 -907 324 -286 100 -522 184 -524 186 -3 2 13 22 34 44
31 32 39 48 43 88 4 46 2 53 -31 88 l-35 39 -266 3 -266 3 0 583 c0 583 0 583
-22 611 -43 55 -44 55 -600 55 -407 -1 -519 -4 -544 -14z m918 -818 c3 -524 5
-585 20 -606 36 -52 53 -57 218 -62 l154 -5 -384 -345 c-211 -190 -387 -345
-392 -345 -5 0 -182 155 -393 345 l-384 345 167 5 c178 5 194 10 230 62 15 21
17 82 20 606 l3 582 369 0 369 0 3 -582z m-881 -1262 c251 -225 440 -388 459
-395 67 -23 80 -14 533 394 235 212 433 385 440 385 7 0 166 -53 353 -119 186
-65 448 -156 581 -202 134 -46 243 -86 243 -89 0 -3 -111 -44 -247 -92 -137
-48 -609 -213 -1050 -368 l-803 -281 -802 281 c-442 155 -914 320 -1050 368
-137 48 -248 89 -248 92 0 4 1144 408 1160 409 3 1 197 -172 431 -383z m-1770
-237 c79 -28 239 -84 354 -124 116 -40 293 -102 395 -138 102 -36 433 -152
735 -258 303 -105 560 -196 572 -200 21 -8 9 -28 -208 -331 -126 -178 -236
-324 -243 -326 -7 -1 -399 140 -872 314 -472 174 -944 348 -1048 386 -104 38
-195 72 -202 76 -9 5 32 85 142 277 85 149 168 294 184 323 17 28 34 52 39 52
4 0 73 -23 152 -51z m4905 -274 c129 -227 179 -322 170 -327 -7 -4 -98 -38
-202 -76 -104 -38 -576 -212 -1048 -386 -473 -174 -865 -315 -872 -314 -7 2
-117 148 -243 326 -217 303 -229 323 -208 331 12 4 270 95 572 200 303 106
633 222 735 258 102 36 280 98 395 138 116 40 273 96 350 123 77 28 146 50
154 49 7 -1 96 -146 197 -322z m-4720 -854 c1220 -450 1445 -531 1474 -531 17
0 44 7 58 16 15 8 117 141 226 295 110 153 203 279 208 279 4 0 8 -457 8
-1015 0 -805 -3 -1015 -12 -1015 -7 0 -512 175 -1123 389 l-1110 389 -3 646
c-1 355 0 646 2 646 2 0 125 -45 272 -99z m4462 -547 l-3 -646 -1110 -389
c-610 -214 -1116 -389 -1122 -389 -10 0 -13 210 -13 1015 0 558 4 1015 8 1015
5 0 98 -126 208 -279 109 -154 211 -287 226 -295 14 -9 41 -16 58 -16 28 0
574 197 1485 536 138 51 253 93 258 93 4 1 6 -290 5 -645z"/>
</g>
</svg>
